<svg width="60" height="56" viewBox="0 0 60 56" fill="none" xmlns="http://www.w3.org/2000/svg">
<path d="M59.4787 47.9792L50.6565 39.2342L54.4349 35.4888C54.7668 35.1578 54.9532 34.7101 54.9532 34.2434C54.9532 33.7766 54.7668 33.3289 54.4349 32.9978L49.3911 27.9982C49.2251 27.8336 49.0277 27.7036 48.8105 27.6156C48.5932 27.5276 48.3604 27.4835 48.1257 27.4858C47.6522 27.4845 47.1974 27.6686 46.8603 27.9982L44.4007 30.4362L40.9788 26.7438L54.6666 14.3241C54.9773 14.0293 55.173 13.6351 55.2191 13.2111L56.4845 1.95743C56.5185 1.69421 56.4913 1.42675 56.4048 1.17561C56.3183 0.924459 56.1749 0.696299 55.9856 0.50865C55.7963 0.321 55.5661 0.17885 55.3127 0.0931185C55.0594 0.00738674 54.7896 -0.0196463 54.524 0.0140933L43.1888 1.26843C42.7611 1.31411 42.3634 1.50808 42.066 1.8161L30 14.8718L17.934 1.8161C17.6438 1.4984 17.2422 1.30251 16.8112 1.26843L5.47599 0.0140933C5.21044 -0.0196463 4.94063 0.00738674 4.68726 0.0931185C4.4339 0.17885 4.20372 0.321 4.01442 0.50865C3.82511 0.696299 3.68171 0.924459 3.59522 1.17561C3.50873 1.42675 3.48146 1.69421 3.51549 1.95743L4.76308 13.2111C4.81216 13.6329 5.01498 14.0225 5.33341 14.3065L19.0212 26.7438L15.5993 30.4362L13.1397 27.9982C12.7951 27.6829 12.3433 27.5079 11.8743 27.5079C11.4054 27.5079 10.9536 27.6829 10.6089 27.9982L5.5651 32.9978C5.23315 33.3289 5.04683 33.7766 5.04683 34.2434C5.04683 34.7101 5.23315 35.1578 5.5651 35.4888L9.34351 39.2342L0.521284 47.9792C0.187373 48.3128 0 48.7636 0 49.2336C0 49.7035 0.187373 50.1543 0.521284 50.4879L5.5651 55.4876C5.90296 55.816 6.3573 56 6.83051 56C7.30373 56 7.75807 55.816 8.09592 55.4876L16.9181 46.7425L20.6966 50.4879C21.0305 50.8169 21.4822 51.0016 21.9531 51.0016C22.4239 51.0016 22.8756 50.8169 23.2096 50.4879L28.2534 45.4882C28.5853 45.1572 28.7716 44.7094 28.7716 44.2427C28.7716 43.776 28.5853 43.3282 28.2534 42.9972L25.7938 40.5415L30 36.7255L34.2062 40.5415L31.7466 42.9972C31.4147 43.3282 31.2284 43.776 31.2284 44.2427C31.2284 44.7094 31.4147 45.1572 31.7466 45.4882L36.7904 50.4879C37.1244 50.8169 37.5761 51.0016 38.0469 51.0016C38.5178 51.0016 38.9695 50.8169 39.3034 50.4879L43.0818 46.7425L51.9041 55.4876C52.2419 55.816 52.6963 56 53.1695 56C53.6427 56 54.097 55.816 54.4349 55.4876L59.4787 50.4879C59.8126 50.1543 60 49.7035 60 49.2336C60 48.7636 59.8126 48.3128 59.4787 47.9792ZM44.2403 4.69577L52.7061 3.75944L51.7615 12.1688L38.5727 24.1468L36.7013 22.1152L49.6762 9.27145L47.1454 6.76278L34.2953 19.5181L32.4239 17.4865L44.2403 4.69577ZM21.6412 29.1288L23.1739 30.5245L19.4311 34.2522L18.1123 32.9448L21.6412 29.1288ZM6.83051 51.7422L4.31751 49.2336L11.8743 41.7429L14.3873 44.2339L6.83051 51.7422ZM21.962 46.7425L9.34351 34.2522L11.8743 31.7435L24.475 44.2339L21.962 46.7425ZM23.263 38.0505L21.9441 36.7432L25.8117 32.9095L27.3622 34.3228L23.263 38.0505ZM8.23851 12.1511L7.2939 3.75944L15.7597 4.69577L41.8877 32.9448L40.5688 34.2522L12.8368 6.76278L10.3238 9.25379L38.038 36.7432L36.737 38.0505L8.23851 12.1511ZM38.038 46.7425L35.525 44.2339L48.1257 31.7435L50.6565 34.2522L38.038 46.7425ZM53.1695 51.7422L45.6127 44.2339L48.1257 41.7429L55.6825 49.2336L53.1695 51.7422Z" fill="black" fill-opacity="0.2"/>
</svg>
